<svg id="Layer_1" height="512" viewBox="0 0 512 512" width="512" xmlns="http://www.w3.org/2000/svg"><g><g><path d="m304 464h32c4.418 0 8 3.582 8 8v16c0 4.418-3.582 8-8 8h-32c-4.418 0-8-3.582-8-8v-16c0-4.418 3.582-8 8-8z" fill="#5ad7ff"/></g><g><path d="m288 48c0-17.673-14.327-32-32-32s-32 14.327-32 32h-80c-17.673 0-32 14.327-32 32v336c0 17.673 14.327 32 32 32h224c17.673 0 32-14.327 32-32v-336c0-17.673-14.327-32-32-32zm-32 16c-8.837 0-16-7.164-16-16s7.163-16 16-16 16 7.164 16 16-7.163 16-16 16z" fill="#a5c3dc"/></g><g><path d="m352 416h-192c-8.837 0-16-7.163-16-16v-304c0-8.837 7.163-16 16-16h192c8.837 0 16 7.163 16 16v304c0 8.837-7.163 16-16 16z" fill="#cd3232"/></g><g><path d="m256 368v-272c0-8.836-7.163-16-16-16h-80c-8.837 0-16 7.164-16 16v272c0 8.836 7.163 16 16 16h80c8.837 0 16-7.164 16-16z" fill="#ff4646"/></g><g><path d="m168 368c-4.418 0-8-3.582-8-8v-256c0-4.418 3.582-8 8-8 4.418 0 8 3.582 8 8v256c0 4.418-3.582 8-8 8z" fill="#ff7878"/></g><g><path d="m256 416h-96c-8.837 0-16-7.163-16-16v-304c0-8.837 7.163-16 16-16h96c-17.673 0-32-14.327-32-32h-80c-17.673 0-32 14.327-32 32v336c0 17.673 14.327 32 32 32h112z" fill="#d7e6f0"/></g><g><path d="m176 416h32v48h-32z" fill="#cd3232"/></g><g><path d="m176 464h32c4.418 0 8 3.582 8 8v16c0 4.418-3.582 8-8 8h-32c-4.418 0-8-3.582-8-8v-16c0-4.418 3.582-8 8-8z" fill="#5ad7ff"/></g><g><path d="m344 488v-16h-16c-4.418 0-8 3.582-8 8v16h16c4.418 0 8-3.582 8-8z" fill="#23aae6"/></g><g><path d="m216 488v-16h-16c-4.418 0-8 3.582-8 8v16h16c4.418 0 8-3.582 8-8z" fill="#23aae6"/></g><g><path d="m304 416h32v48h-32z" fill="#cd3232"/></g><g><path d="m192 464h-16v-32h8c4.418 0 8 3.582 8 8z" fill="#ff4646"/></g><g><path d="m320 464h-16v-32h8c4.418 0 8 3.582 8 8z" fill="#ff4646"/></g><g><path d="m248 416h16v80h-16z" fill="#cd3232"/></g><g><path d="m320 336h-128c-8.837 0-16-7.163-16-16v-144c0-8.837 7.163-16 16-16h128c8.837 0 16 7.163 16 16v144c0 8.837-7.163 16-16 16z" fill="#a5c3dc"/></g><g><path d="m256 336h-64c-8.837 0-16-7.163-16-16v-144c0-8.837 7.163-16 16-16h64z" fill="#d7e6f0"/></g><g><path d="m296 216c-8.837-8.837-23.163-8.837-32 0l-8 8-8-8c-8.837-8.837-23.163-8.837-32 0-8.837 8.836-8.837 23.163 0 32l34.343 34.343c3.124 3.124 8.19 3.124 11.314 0l34.343-34.343c8.837-8.837 8.837-23.164 0-32z" fill="#cd3232"/></g><g><path d="m248 216c-8.836-8.837-23.164-8.837-32 0-8.836 8.836-8.836 23.163 0 32l34.343 34.343c1.562 1.562 3.609 2.343 5.657 2.343v-60.686z" fill="#ff4646"/></g></g></svg>