<svg id="Capa_1" enable-background="new 0 0 510 510" height="512" viewBox="0 0 510 510" width="512" xmlns="http://www.w3.org/2000/svg"><g><path d="m386.417 195.668 24.796-15.668-90-90h-132.426l-90 90 14.759 15.668-23.546 14.332v300h330v-300z" fill="#e4f3ff"/><path d="m411.213 180-90-90h-66.213v420h165v-300l-23.583-14.332z" fill="#c3dafd"/><circle cx="255" cy="345" fill="#ff5c5c" r="105"/><path d="m255 240v210c57.897 0 105-47.103 105-105s-47.103-105-105-105z" fill="#ff3838"/><path d="m120 0h270v120h-270z" fill="#457899"/><path d="m255 0h135v120h-135z" fill="#365c75"/><path d="m300 0h30v60h-30z" fill="#274254"/><path d="m240 0h30v60h-30z" fill="#365c75"/><path d="m255 0h15v60h-15z" fill="#274254"/><path d="m180 0h30v60h-30z" fill="#365c75"/><path d="m90 188.787v21.213h330v-21.213l-8.787-8.787h-312.426z" fill="#ff5c5c"/><path d="m420 188.787-8.787-8.787h-156.213v30h165z" fill="#ff3838"/><path d="m300 330h-30v-30h-30v30h-30v30h30v30h30v-30h30z" fill="#e4f3ff"/><path d="m270 330v-30h-15v90h15v-30h30v-30z" fill="#c3dafd"/></g></svg>