<svg id="Layer_1" enable-background="new 0 0 512 512" height="512" viewBox="0 0 512 512" width="512" xmlns="http://www.w3.org/2000/svg"><g><ellipse cx="208" cy="128" fill="#f94d66" rx="80" ry="48"/><g><path d="m160 128.5h16v15h-16z" fill="#fff"/></g><path d="m208 160c-39.638 0-72.522-17.3-78.873-40-.728 2.603-1.127 5.273-1.127 8 0 26.51 35.817 48 80 48s80-21.49 80-48c0-2.727-.399-5.397-1.127-8-6.351 22.7-39.235 40-78.873 40z" fill="#de3052"/><ellipse cx="320" cy="256" fill="#f94d66" rx="80" ry="48"/><path d="m320 288c-39.638 0-72.522-17.3-78.873-40-.728 2.603-1.127 5.273-1.127 8 0 26.51 35.817 48 80 48s80-21.49 80-48c0-2.727-.399-5.397-1.127-8-6.351 22.7-39.235 40-78.873 40z" fill="#de3052"/><ellipse cx="208" cy="384" fill="#f94d66" rx="80" ry="48"/><g><path d="m160 384.5h16v15h-16z" fill="#fff"/></g><path d="m208 416c-39.638 0-72.522-17.3-78.873-40-.728 2.603-1.127 5.273-1.127 8 0 26.51 35.817 48 80 48s80-21.49 80-48c0-2.727-.399-5.397-1.127-8-6.351 22.7-39.235 40-78.873 40z" fill="#de3052"/><g><circle cx="448" cy="160" fill="#f94d66" r="32"/><path d="m450.212 128.085c9.282 3.968 15.788 13.181 15.788 23.915 0 14.359-11.641 26-26 26-10.734 0-19.947-6.506-23.915-15.788 1.137 16.64 14.986 29.788 31.915 29.788 17.673 0 32-14.327 32-32 0-16.929-13.148-30.778-29.788-31.915z" fill="#de3052"/></g><g><circle cx="64" cy="304" fill="#f94d66" r="32"/><path d="m66.212 272.085c9.282 3.968 15.788 13.181 15.788 23.915 0 14.359-11.641 26-26 26-10.734 0-19.946-6.506-23.915-15.788 1.137 16.64 14.986 29.788 31.915 29.788 17.673 0 32-14.327 32-32 0-16.929-13.148-30.778-29.788-31.915z" fill="#de3052"/></g><circle cx="176" cy="240" fill="#f94d66" r="16"/><g><circle cx="352" cy="368" fill="#f94d66" r="16"/><g><path d="m208 183.5c11.775 0 23.189-1.428 33.926-4.246l-3.807-14.509c-9.495 2.491-19.629 3.754-30.12 3.754-39.299 0-72.5-18.547-72.5-40.5s33.201-40.5 72.5-40.5 72.5 18.547 72.5 40.5c0 11.982-10.31 23.783-27.581 31.565l6.163 13.676c10.725-4.833 19.687-11.255 25.916-18.572 6.871-8.07 10.503-17.292 10.503-26.669 0-31.122-38.435-55.5-87.5-55.5s-87.5 24.378-87.5 55.5 38.435 55.501 87.5 55.501z"/><path d="m208 112.5c-16.076 0-24.5-6.315-24.5-8.5h-15c0 13.397 16.981 23.5 39.5 23.5s39.5-10.103 39.5-23.5h-15c0 2.185-8.424 8.5-24.5 8.5z"/><path d="m272 256.5h16v15h-16z"/><path d="m320 200.5c-49.065 0-87.5 24.378-87.5 55.5s38.435 55.5 87.5 55.5 87.5-24.378 87.5-55.5-38.435-55.5-87.5-55.5zm0 96c-39.299 0-72.5-18.547-72.5-40.5s33.201-40.5 72.5-40.5 72.5 18.547 72.5 40.5-33.201 40.5-72.5 40.5z"/><path d="m320 240.5c-16.076 0-24.5-6.315-24.5-8.5h-15c0 13.397 16.981 23.5 39.5 23.5s39.5-10.103 39.5-23.5h-15c0 2.185-8.424 8.5-24.5 8.5z"/><path d="m208 328.5c-16.656 0-32.826 2.916-46.761 8.432l5.521 13.947c12.195-4.828 26.455-7.379 41.24-7.379 39.299 0 72.5 18.547 72.5 40.5s-33.201 40.5-72.5 40.5-72.5-18.547-72.5-40.5c0-9.249 6.054-18.401 17.047-25.771l-8.353-12.459c-15.279 10.243-23.694 23.82-23.694 38.23 0 31.122 38.435 55.5 87.5 55.5s87.5-24.378 87.5-55.5-38.435-55.5-87.5-55.5z"/><path d="m247.5 360h-15c0 2.185-8.424 8.5-24.5 8.5s-24.5-6.315-24.5-8.5h-15c0 13.397 16.981 23.5 39.5 23.5s39.5-10.103 39.5-23.5z"/><path d="m512 167.5v-15h-25.223c-1.028-5.325-3.121-10.274-6.061-14.61l17.842-17.842-10.607-10.606-17.842 17.841c-4.335-2.939-9.284-5.032-14.609-6.06v-25.223h-15v25.223c-5.325 1.028-10.274 3.121-14.609 6.06l-17.842-17.841-10.607 10.606 17.842 17.842c-2.939 4.335-5.033 9.285-6.061 14.61h-25.223v15h25.223c1.028 5.325 3.121 10.274 6.061 14.61l-17.842 17.842 10.607 10.606 17.842-17.842c4.335 2.939 9.284 5.032 14.609 6.06v25.224h15v-25.223c5.325-1.028 10.274-3.121 14.609-6.06l17.842 17.842 10.607-10.606-17.842-17.842c2.939-4.335 5.033-9.285 6.061-14.61h25.223zm-64 17c-13.51 0-24.5-10.991-24.5-24.5s10.99-24.5 24.5-24.5 24.5 10.991 24.5 24.5-10.99 24.5-24.5 24.5z"/><path d="m440 152.5h16v15h-16z"/><path d="m102.777 311.5h25.223v-15h-25.223c-1.028-5.325-3.121-10.275-6.061-14.61l17.842-17.842-10.606-10.606-17.842 17.842c-4.335-2.939-9.285-5.033-14.61-6.061v-25.223h-15v25.223c-5.325 1.028-10.275 3.122-14.61 6.061l-17.842-17.842-10.606 10.606 17.842 17.842c-2.939 4.335-5.033 9.285-6.06 14.61h-25.224v15h25.223c1.028 5.325 3.121 10.275 6.06 14.61l-17.842 17.842 10.606 10.606 17.842-17.842c4.335 2.939 9.285 5.033 14.61 6.061v25.223h15v-25.223c5.325-1.028 10.275-3.122 14.61-6.061l17.842 17.842 10.606-10.606-17.841-17.842c2.939-4.335 5.033-9.285 6.061-14.61zm-38.777 17c-13.509 0-24.5-10.991-24.5-24.5s10.991-24.5 24.5-24.5 24.5 10.991 24.5 24.5-10.991 24.5-24.5 24.5z"/><path d="m56 296.5h16v15h-16z"/><path d="m216 247.5v-15h-17.734c-.342-1.012-.749-1.994-1.22-2.939l12.542-12.542-10.606-10.606-12.542 12.542c-.945-.471-1.927-.878-2.939-1.22v-17.735h-15v17.734c-1.012.342-1.994.749-2.939 1.22l-12.542-12.542-10.606 10.606 12.542 12.542c-.471.945-.878 1.927-1.22 2.939h-17.736v15h17.734c.342 1.012.749 1.994 1.22 2.939l-12.542 12.542 10.606 10.606 12.542-12.542c.945.471 1.927.878 2.939 1.22v17.736h15v-17.734c1.012-.342 1.994-.749 2.939-1.22l12.542 12.542 10.606-10.606-12.542-12.542c.471-.945.878-1.927 1.22-2.939h17.736zm-40 1c-4.687 0-8.5-3.813-8.5-8.5s3.813-8.5 8.5-8.5 8.5 3.813 8.5 8.5-3.813 8.5-8.5 8.5z"/><path d="m373.046 357.561 12.542-12.542-10.607-10.606-12.542 12.542c-.945-.471-1.927-.878-2.939-1.22v-17.735h-15v17.734c-1.012.342-1.994.749-2.939 1.22l-12.542-12.542-10.607 10.606 12.542 12.542c-.471.945-.878 1.927-1.22 2.939h-17.734v15h17.734c.342 1.012.749 1.994 1.22 2.939l-12.542 12.542 10.607 10.606 12.542-12.542c.945.471 1.927.878 2.939 1.22v17.736h15v-17.734c1.012-.342 1.994-.749 2.939-1.22l12.542 12.542 10.607-10.606-12.542-12.542c.471-.945.878-1.927 1.22-2.939h17.734v-15h-17.734c-.342-1.013-.749-1.995-1.22-2.94zm-21.046 18.939c-4.686 0-8.5-3.813-8.5-8.5s3.814-8.5 8.5-8.5 8.5 3.813 8.5 8.5-3.814 8.5-8.5 8.5z"/></g></g></g></svg>