<svg id="Capa_1" enable-background="new 0 0 497 497" height="512" viewBox="0 0 497 497" width="512" xmlns="http://www.w3.org/2000/svg"><g><path d="m413.5 15h-30v482h30c16.568 0 30-13.431 30-30v-422c0-16.569-13.432-30-30-30z" fill="#ffcf87"/><path d="m413.5 467-135-196 135-196v-30c0-16.569-13.432-30-30-30h-300c-16.569 0-30 13.431-30 30v422c0 16.569 13.431 30 30 30h300c16.568 0 30-13.431 30-30z" fill="#ffea75"/><path d="m383.5 467h30v-392h-30l-105 195.638z" fill="#defffd"/><path d="m383.5 467h-300v-392h300v270l-30 46 30 46z" fill="#fff"/><path d="m323.5 405 60-30v-30h-30z" fill="#fa3c45"/><path d="m113.5 345v30l30 32h210v-62z" fill="#ff6161"/><path d="m353.5 437h30v-62h-30l-75 31z" fill="#aafaf5"/><path d="m203.5 375h-90v62h90l45-31z" fill="#ffea75"/><path d="m203.5 375h150v62h-150z" fill="#defffd"/><path d="m278.5 45h45v75h-45z" fill="#5fc2b7"/><path d="m248.5 0c-24.853 0-45 20.147-45 45h-30v75h120v-75c0-24.853-20.147-45-45-45zm0 60c-8.284 0-15-6.716-15-15s6.716-15 15-15 15 6.716 15 15-6.716 15-15 15z" fill="#69d6ca"/><path d="m323.5 105h-30l30 30h30c0-16.569-13.432-30-30-30z" fill="#69d6ca"/><path d="m293.5 105h-120c-16.569 0-30 13.431-30 30h180c0-16.569-13.432-30-30-30z" fill="#87ede7"/><path d="m293.232 229.287s-25.792-37.109-44.732-64.282v149.995c30.099 0 54.5-24.421 54.5-54.545 0-11.593-3.624-22.332-9.768-31.168z" fill="#fa3c45"/><path d="m268.609 229.287s-11.594-37.109-20.109-64.282c-.003-.005-44.715 64.282-44.715 64.282-6.161 8.836-9.785 19.576-9.785 31.168 0 30.124 24.4 54.545 54.5 54.545 13.531 0 24.5-24.421 24.5-54.545 0-11.593-1.629-22.332-4.391-31.168z" fill="#ff6161"/></g></svg>