<?xml version="1.0" encoding="UTF-8"?><svg xmlns="http://www.w3.org/2000/svg" xmlns:xlink="http://www.w3.org/1999/xlink" height="107.8" preserveAspectRatio="xMidYMid meet" version="1.0" viewBox="-12.1 -1.3 554.4 107.8" width="554.4" zoomAndPan="magnify"><g fill-rule="evenodd"><g id="change1_1"><path d="m366.53 372c5.8723-3.2657 10.097-4.8815 16.615-4.1888 4.2766 0.45442 7.7266 2.4736 10.26 5.3558 2.4233 2.7564 4.0085 6.3021 4.6772 10.023 0.67062 3.7322 1.8719 8.2638 4.9382 12.37-3.6894 1.7148-8.7285 3.3183-12.792 2.1777-4.3498-1.2209-7.6159-3.1964-10.113-5.5045-3.762-3.4773-5.7786-7.7096-7.1261-11.254-1.3436-3.5339-3.5698-6.7176-6.4599-8.9797z" fill="#c70f2e" stroke="#000" stroke-width="3.828" transform="matrix(3.55 0 0 2.2547 -1055.1 -824.63)"/></g><g id="change2_1"><path d="m393.39 373.15c6.3739-2.1264 10.824-2.9352 17.103-1.052 4.1193 1.2355 7.1377 3.8565 9.0964 7.1566 1.8732 3.1561 2.7772 6.9334 2.748 10.714-0.0293 3.7918 0.31535 8.4673 2.5716 13.069-3.9424 1.0048-9.1909 1.6512-12.974-0.21933-4.05-2.0024-6.8955-4.5464-8.924-7.2755-3.056-4.1116-4.2572-8.6433-4.9279-12.375-0.66864-3.7211-2.2693-7.2608-4.6926-10.017z" fill="#e0e0e0" stroke="#000" stroke-width="3.828" transform="matrix(3.55 0 0 2.2547 -1055.1 -824.63)"/></g><g id="change1_2"><path d="m436.56 409.75c-8.6894 1.2321-10.156-3.6664-11.646-6.7228-2.2451-4.6048-2.5898-9.2803-2.5604-13.072 0.0292-3.7806-0.89101-7.5548-2.7642-10.711 6.6568-0.91419 11.316-1.3384 17.14 1.6707 3.8207 1.9742 8.012 4.9132 9.0105 10.61 2.2508 12.841-4.1488 17.512-9.18 18.226z" fill="#c70f2e" stroke="#000" stroke-width="3.828" transform="matrix(3.55 0 0 2.2547 -1055.1 -824.63)"/></g><g id="change2_2"><path d="m339.91 375.82c5.1691-4.2929 9.023-6.6602 15.557-7.1819 4.287-0.34225 8.0503 1.0059 11.072 3.3712 2.8902 2.2621 5.1023 5.4545 6.4458 8.9885 1.3476 3.5444 3.3641 7.7767 7.1354 11.247-3.3098 2.366-7.9666 4.8715-12.171 4.5001-4.5004-0.39755-8.0748-1.7367-10.955-3.5445-4.3389-2.7237-7.1016-6.5114-9.0798-9.7464-1.9724-3.2254-4.7477-5.9438-8.0055-7.634z" fill="#e0e0e0" stroke="#000" stroke-width="3.828" transform="matrix(3.55 0 0 2.2547 -1055.1 -824.63)"/></g><g id="change1_3"><path d="m314.45 384.48c4.2885-5.1728 7.6395-8.2104 13.966-9.9285 4.1503-1.1272 8.0977-0.49637 11.504 1.2709 3.2579 1.6902 6.0209 4.4197 7.9933 7.6452 1.9783 3.235 4.7409 7.0227 9.0876 9.7378-2.8166 2.9359-6.9313 6.2574-11.132 6.668-4.4965 0.43944-8.2566-0.21733-11.421-1.4629-4.7669-1.8766-8.1808-5.0896-10.722-7.9042-2.5336-2.8062-5.7626-4.966-9.2763-6.0262z" fill="#c70f2e" stroke="#000" stroke-width="3.828" transform="matrix(3.55 0 0 2.2547 -1055.1 -824.63)"/></g><g id="change2_3"><path d="m304.39 384.95c3.5222-2.4378 6.3924-1.5707 10.066-0.46213 3.5137 1.0602 6.7328 3.2332 9.2664 6.0395 2.541 2.8146 5.955 6.0276 10.728 7.8943-2.2267 3.4051-6.0524 6.5024-9.7108 8.607-3.4607 1.9908-7.4806 3.5175-13.316 2.5234-10.965-3.3503-17.613-17.28-7.0338-24.602z" fill="#e0e0e0" stroke="#000" stroke-width="3.828" transform="matrix(3.55 0 0 2.2547 -1055.1 -824.63)"/></g><g id="change3_1"><path d="m330.94 392.89 9.4716 2.2823-2.0541-5.3634 7.7599 3.4235-0.91293-6.1622c1.7539 2.3204 3.2466 4.6407 7.6458 6.9611-5.6258 4.205-11.783 6.9564-21.91-1.1412z" fill="#5b0715" transform="matrix(3.55 0 0 2.2547 -1055.1 -824.63)"/></g><g id="change4_1"><path d="m354.52 387.12 8.888 3.9903-1.0294-5.6503 6.9952 4.7962 0.23946-6.2249c1.2957 2.6041 2.3349 5.16 6.2305 8.252-6.305 3.095-12.864 4.6634-21.324-5.1633z" fill="#868686" transform="matrix(3.55 0 0 2.2547 -1055.1 -824.63)"/></g><g id="change3_2"><path d="m378.77 385.79 7.9994 5.5614 0.0305-5.7432 5.9904 6.0042 1.3836-6.0739c0.79314 2.7984 1.343 5.5021 4.6013 9.2597-6.7677 1.8789-13.504 2.2103-20.005-9.0082z" fill="#5b0715" transform="matrix(3.55 0 0 2.2547 -1055.1 -824.63)"/></g><g id="change4_2"><path d="m402.85 388.97 6.8363 6.9416 1.0894-5.639 4.78 7.0062 2.4803-5.7144c0.26332 2.8967 0.30495 5.6554 2.8143 9.9496-6.9981 0.59823-13.68-0.31861-18-12.544z" fill="#868686" transform="matrix(3.55 0 0 2.2547 -1055.1 -824.63)"/></g><g id="change5_1"><path d="m342.49 381.55-10.066-1.3665 2.574 5.1527-8.7583-2.1042 1.4474 6.0592c-2.0164-2.1461-3.7603-4.3172-8.5368-6.2091 5.5247-4.8384 12.002-10.256 23.34-1.5321z" fill="#f36079" transform="matrix(3.55 0 0 2.2547 -1055.1 -824.63)"/></g><g id="change6_1"><path d="m368.01 378.1-9.6414-3.2 1.5793 5.5391-8.2199-3.6837 0.3049 6.2222c-1.5859-2.4812-2.8994-4.9368-7.245-7.6773 6.3224-3.7363 13.687-7.8657 23.222 2.7996z" fill="#c1c1c1" transform="matrix(3.55 0 0 2.2547 -1055.1 -824.63)"/></g><g id="change5_2"><path d="m393.72 379.43-8.8856-4.9235 0.53045 5.7354-7.3993-5.1368-0.84813 6.1717c-1.101-2.7311-1.939-5.3869-5.7044-8.882 6.9031-2.5059 14.903-5.2058 22.307 7.0352z" fill="#f36079" transform="matrix(3.55 0 0 2.2547 -1055.1 -824.63)"/></g><g id="change6_2"><path d="m418.75 385.47-7.8249-6.4781-0.53664 5.7348-6.3247-6.4135-1.972 5.9093c-0.57828-2.8874-0.91199-5.6521-3.9681-9.7818 7.2469-1.1895 15.608-2.3673 20.626 11.029z" fill="#c1c1c1" transform="matrix(3.55 0 0 2.2547 -1055.1 -824.63)"/></g><g id="change4_3"><path d="m306.4 403.56 10.376 0.17317-2.8468-4.4083 7.774 1.6105 0.064-6.3722c2.1518 1.957 4.047 3.9622 8.7986 5.4312-4.7536 5.1706-14.978 11.431-24.165 3.5656z" fill="#868686" transform="matrix(3.55 0 0 2.2547 -1055.1 -824.63)"/></g><g id="change3_3"><path d="m425.93 396.53 5.0338 5.7568 3.7295-3.318 1.787 5.3398 6.729-2.6298c-6.2774 10.51-16.695 6.2173-17.279-5.1488z" fill="#5b0715" transform="matrix(3.55 0 0 2.2547 -1055.1 -824.63)"/></g><g id="change5_3"><path d="m442.24 396.03-6.4956-7.8104-1.5853 5.5374-5.0331-7.4702-3.0283 5.4441c-0.0357-2.9445 0.14629-5.7234-2.0956-10.346 7.342 0.16772 15.777 0.55248 18.238 14.645z" fill="#f36079" transform="matrix(3.55 0 0 2.2547 -1055.1 -824.63)"/></g><g id="change6_3"><path d="m318.04 389.64-7.8188 0.5138 1.1536 4.5895-6.5683-0.75595-0.69686 6.4975c-8.8376-11.91 7.5794-19.622 13.93-10.845z" fill="#c1c1c1" transform="matrix(3.55 0 0 2.2547 -1055.1 -824.63)"/></g></g></svg>