<svg id="Capa_1" enable-background="new 0 0 512 512" height="512" viewBox="0 0 512 512" width="512" xmlns="http://www.w3.org/2000/svg"><g><g clip-rule="evenodd" fill-rule="evenodd"><path d="m10.006 478.268h105.167l7.2-143.351-7.2-103.806h-115.173v237.036c0 6.52 4.252 10.121 10.006 10.121z" fill="#fff1dd"/><path d="m0 234.229h115.173l3.6-27.724-3.6-27.638-105.478 27.156c-6.208 1.617-9.695 5.414-9.695 12.502z" fill="#ff8086"/><path d="m115.173 84.417h281.653v393.851h-281.653z" fill="#fff8ef"/><path d="m204.125 423.415h103.777c3.288 0 5.981 2.693 5.981 5.982v48.87h-115.767v-48.87c0-3.289 2.693-5.982 6.009-5.982z" fill="#9dc6fb"/><path d="m277.884 423.415h30.019c3.288 0 5.981 2.693 5.981 5.982v48.87h-29.99v-48.87c0-3.289-2.693-5.982-6.01-5.982z" fill="#80b4fb"/><path d="m396.827 478.268h105.195c6.718 0 9.978-3.459 9.978-10.177v-238.17h-115.173l-7.2 137.396z" fill="#fff1dd"/><path d="m115.173 88.045h281.653v-15.704c0-6.01-3.685-10.771-9.779-12.047l-121.268-25.542c-6.406-1.359-13.039-1.359-19.559 0l-121.239 25.542c-6.236 1.304-9.808 5.84-9.808 12.047z" fill="#ff8086"/><path d="m512 234.229h-115.173l-3.005-30.134 3.005-25.227 105.507 27.155c6.463 1.673 9.667 6.493 9.667 12.502v15.704z" fill="#ff8086"/><path d="m83.198 234.229h31.975v244.038h-31.975z" fill="#ffe4c1"/><path d="m115.173 178.868-31.975 8.249v47.112h31.975z" fill="#e5646e"/><path d="m479.996 200.298v33.932h32.004v-15.704c0-6.009-3.203-10.829-9.667-12.502z" fill="#e5646e"/><path d="m512 234.229h-32.004v244.038h22.026c6.718 0 9.978-3.402 9.978-10.007z" fill="#ffe4c1"/><path d="m364.824 88.045h32.003v390.223h-32.003z" fill="#fff1dd"/><path d="m364.824 88.045h32.003v-15.704c0-6.01-3.685-10.771-9.779-12.047l-22.224-4.678z" fill="#e5646e"/><path d="m152.846 263.54h39.26c3.317 0 6.01 2.692 6.01 5.98v39.29c0 3.287-2.693 6.009-6.01 6.009h-39.26c-3.316 0-6.01-2.722-6.01-6.009v-39.29c0-3.288 2.694-5.98 6.01-5.98zm281.937 80.562h39.26c3.316 0 6.009 2.721 6.009 6.01v39.288c0 3.289-2.693 5.982-6.009 5.982h-39.26c-3.316 0-6.01-2.692-6.01-5.982v-39.288c0-3.29 2.694-6.01 6.01-6.01zm-396.827 0h39.289c3.289 0 5.981 2.721 5.981 6.01v39.288c0 3.289-2.693 5.982-5.981 5.982h-39.289c-3.288 0-6.009-2.692-6.009-5.982v-39.288c0-3.29 2.721-6.01 6.009-6.01zm396.827-80.562h39.26c3.316 0 6.009 2.692 6.009 5.98v39.29c0 3.287-2.693 6.009-6.009 6.009h-39.26c-3.316 0-6.01-2.722-6.01-6.009v-39.29c0-3.288 2.694-5.98 6.01-5.98zm-396.827 0h39.289c3.289 0 5.981 2.692 5.981 5.98v39.29c0 3.287-2.693 6.009-5.981 6.009h-39.289c-3.288 0-6.009-2.722-6.009-6.009v-39.29c0-3.288 2.721-5.98 6.009-5.98zm281.938 80.562h39.288c3.289 0 5.982 2.721 5.982 6.01v39.288c0 3.289-2.693 5.982-5.982 5.982h-39.288c-3.289 0-6.01-2.692-6.01-5.982v-39.288c0-3.29 2.721-6.01 6.01-6.01zm0-80.562h39.288c3.289 0 5.982 2.692 5.982 5.98v39.29c0 3.287-2.693 6.009-5.982 6.009h-39.288c-3.289 0-6.01-2.722-6.01-6.009v-39.29c0-3.288 2.721-5.98 6.01-5.98zm-83.538 80.562h39.288c3.288 0 6.009 2.721 6.009 6.01v39.288c0 3.289-2.721 5.982-6.009 5.982h-39.288c-3.289 0-5.982-2.692-5.982-5.982v-39.288c0-3.29 2.693-6.01 5.982-6.01zm0-80.562h39.288c3.288 0 6.009 2.692 6.009 5.98v39.29c0 3.287-2.721 6.009-6.009 6.009h-39.288c-3.289 0-5.982-2.722-5.982-6.009v-39.29c0-3.288 2.693-5.98 5.982-5.98zm-83.51 80.562h39.26c3.317 0 6.01 2.721 6.01 6.01v39.288c0 3.289-2.693 5.982-6.01 5.982h-39.26c-3.316 0-6.01-2.692-6.01-5.982v-39.288c0-3.29 2.694-6.01 6.01-6.01z" fill="#c3ddff"/><path d="m162.116 263.54h29.991c3.317 0 6.01 2.692 6.01 5.98v39.29c0 3.287-2.693 6.009-6.01 6.009h-29.991c3.288 0 6.009-2.722 6.009-6.009v-39.29c0-3.288-2.721-5.98-6.009-5.98zm281.936 80.562h29.991c3.316 0 6.009 2.721 6.009 6.01v39.288c0 3.289-2.693 5.982-6.009 5.982h-29.991c3.317 0 6.01-2.692 6.01-5.982v-39.288c0-3.29-2.693-6.01-6.01-6.01zm-396.826 0h30.019c3.289 0 5.981 2.721 5.981 6.01v39.288c0 3.289-2.693 5.982-5.981 5.982h-30.019c3.316 0 6.009-2.692 6.009-5.982v-39.288c0-3.29-2.693-6.01-6.009-6.01zm396.826-80.562h29.991c3.316 0 6.009 2.692 6.009 5.98v39.29c0 3.287-2.693 6.009-6.009 6.009h-29.991c3.317 0 6.01-2.722 6.01-6.009v-39.29c0-3.288-2.693-5.98-6.01-5.98zm-396.826 0h30.019c3.289 0 5.981 2.692 5.981 5.98v39.29c0 3.287-2.693 6.009-5.981 6.009h-30.019c3.316 0 6.009-2.722 6.009-6.009v-39.29c0-3.288-2.693-5.98-6.009-5.98zm281.937 80.562h30.019c3.289 0 5.982 2.721 5.982 6.01v39.288c0 3.289-2.693 5.982-5.982 5.982h-30.019c3.316 0 6.01-2.692 6.01-5.982v-39.288c0-3.29-2.694-6.01-6.01-6.01zm0-80.562h30.019c3.289 0 5.982 2.692 5.982 5.98v39.29c0 3.287-2.693 6.009-5.982 6.009h-30.019c3.316 0 6.01-2.722 6.01-6.009v-39.29c0-3.288-2.694-5.98-6.01-5.98zm-83.51 80.562h29.991c3.288 0 6.009 2.721 6.009 6.01v39.288c0 3.289-2.721 5.982-6.009 5.982h-29.991c3.289 0 5.982-2.692 5.982-5.982v-39.288c0-3.29-2.693-6.01-5.982-6.01zm0-80.562h29.991c3.288 0 6.009 2.692 6.009 5.98v39.29c0 3.287-2.721 6.009-6.009 6.009h-29.991c3.289 0 5.982-2.722 5.982-6.009v-39.29c0-3.288-2.693-5.98-5.982-5.98zm-83.537 80.562h29.991c3.317 0 6.01 2.721 6.01 6.01v39.288c0 3.289-2.693 5.982-6.01 5.982h-29.991c3.288 0 6.009-2.692 6.009-5.982v-39.288c0-3.29-2.721-6.01-6.009-6.01z" fill="#a4ccff"/></g><path d="m221.899 218.072c-1.474 3.854-5.811 5.811-9.667 4.337-3.883-1.475-5.811-5.811-4.337-9.666l29.424-77.217c1.332-3.544 4.847-5.925 8.617-5.925 3.798 0 7.313 2.381 8.645 5.953l29.141 77.216c1.474 3.855-.481 8.164-4.365 9.639-3.855 1.445-8.164-.51-9.638-4.365l-5.414-14.373h-36.935zm140.487-23.841c0 7.88-3.204 15.025-8.391 20.213-5.159 5.158-12.302 8.361-20.211 8.361-11.027 0-26.646.057-26.703.057-4.082.029-7.568-3.345-7.512-7.455 0-26.108 0-52.215 0-78.321 0-4.139 3.345-7.513 7.483-7.513h22.763c7.058 0 13.436 2.863 18.057 7.483 4.62 4.621 7.455 10.998 7.455 18.057 0 5.868-1.984 11.282-5.301 15.591 1.417.992 2.75 2.098 3.968 3.316 5.188 5.16 8.392 12.303 8.392 20.211zm-47.822-28.601h15.251c2.919 0 5.527-1.19 7.455-3.089 1.899-1.9 3.061-4.536 3.061-7.428 0-2.92-1.162-5.556-3.061-7.455-1.928-1.898-4.536-3.09-7.455-3.09h-15.251zm28.829 38.212c2.466-2.467 3.969-5.868 3.969-9.61 0-3.77-1.502-7.143-3.969-9.609-2.466-2.466-5.839-3.968-9.609-3.968h-19.219v27.24l19.219-.085c3.77 0 7.143-1.531 9.609-3.968zm-193.75-66.699c0-4.139 3.345-7.513 7.512-7.513 4.139 0 7.484 3.374 7.484 7.513v70.865l19.927-.085c4.139 0 7.484 3.345 7.484 7.484 0 4.11-3.345 7.455-7.484 7.455h-26.788c-4.394 0-8.135-3.061-8.135-7.455zm96.294 17.829-12.841 33.704h25.54z" fill="#6f6571"/></g></svg>