<svg id="Capa_1" enable-background="new 0 0 510 510" height="512" viewBox="0 0 510 510" width="512" xmlns="http://www.w3.org/2000/svg"><g><g><path d="m149.507 60-45.964-15-44.014 15v60l10 15-10 14.999v225.001c0 49.304 39.853 89.468 89.036 89.988l.941-.001c.164.002.329.004.493.006l15-209.993-14.999-195.113z" fill="#fff5f5"/><path d="m240.471 60-47.429-10-43.042 9.887v405.107c.156.003.314.006.471.006 49.626 0 90-40.374 90-90v-15l-16.928-90 16.928-90v-29.999l-10-15.001 10-15z" fill="#efe2dd"/><path d="m150 60 5.5-30-5.5-30h-14.036l-15 5-15-5h-75.964v60h75.963l14.412-6.25 15.59 6.25z" fill="#ff835d"/><path d="m270 60v-60h-74.036l-15 3.833-15-3.833h-15.964v60h15.964l15-4.125 15 4.125z" fill="#fb5858"/><path d="m135 180v180h15.493l13.642-92.883-13.642-87.117z" fill="#7ed8f6"/><path d="m150 150-90.471.001v-30.001h90.471l9.036 14.604z" fill="#fed843"/><path d="m150 120h90.471v30h-90.471z" fill="#fabe2c"/><path d="m165.964 0h30v60h-30z" fill="#fabe2c"/><path d="m105.964 0h30v60h-30z" fill="#fed843"/><path d="m150 180v180h90.417l.054-180z" fill="#6aa9ff"/></g><path d="m270 360c-.001-29.983 40.242-75.41 60-97.459 2.823 3.361 59.998 62.438 60 97.458 0 33.084-26.916 60-60 60-33.078 0-60-26.91-60-59.999z" fill="#ff835d"/><path d="m382.5 461.25c0-26.111 35.617-63.6 48.75-78.708 7.045 8.104 48.749 50.915 48.75 78.708 0 26.881-21.869 48.751-48.75 48.75-26.88 0-48.75-21.868-48.75-48.75z" fill="#fb5858"/></g></svg>