<?xml version="1.0" encoding="iso-8859-1"?>
<!-- Generator: Adobe Illustrator 19.0.0, SVG Export Plug-In . SVG Version: 6.00 Build 0)  -->
<svg version="1.1" id="Capa_1" xmlns="http://www.w3.org/2000/svg" xmlns:xlink="http://www.w3.org/1999/xlink" x="0px" y="0px"
	 viewBox="0 0 512 512" style="enable-background:new 0 0 512 512;" xml:space="preserve">
<path style="fill:#DBDBDB;" d="M370.532,131.137c-6.852,0-10.389-8.342-5.486-13.245l97.533-97.531c3.029-3.027,7.941-3.027,10.97,0
	c3.03,3.03,3.03,7.943,0,10.973C368.8,136.082,375.123,131.137,370.532,131.137z"/>
<path style="fill:#C6C4C4;" d="M96.935,377.222c-42.119,42.12-31.946,31.945-60.627,60.628l19.751,19.751
	c8.141-8.141,56.213-56.213,60.628-60.628L96.935,377.222z"/>
<path style="fill:#A8A0A0;" d="M96.935,377.222c-23.593,23.594-37.727,37.727-60.627,60.628l9.942,9.941
	c11.095-11.096,47.26-47.261,60.628-60.628L96.935,377.222z"/>
<path style="fill:#C6C4C4;" d="M367.678,155.726l13.587-13.587c8.149-8.146,8.149-21.353,0.002-29.497
	c-8.145-8.148-21.351-8.146-29.498,0l-13.587,13.588C339.032,127.037,366.639,154.64,367.678,155.726z"/>
<path style="fill:#A8A0A0;" d="M385.771,119.37c-5.697-13.694-23.509-17.219-34.001-6.728l-13.587,13.588
	c0.868,0.823-1.441-1.47,13.706,13.675C363.021,128.77,369.907,119.556,385.771,119.37z"/>
<path style="fill:#4A94CC;" d="M367.147,155.166l-28.405-28.404c-13.944-13.946-36.556-13.946-50.503,0L75.807,339.197
	c-5.236,5.238-5.237,13.728,0,18.962l59.943,59.944c5.236,5.237,13.726,5.236,18.962,0
	c25.935-25.935,187.924-187.926,212.435-212.437C381.092,191.722,381.092,169.111,367.147,155.166z"/>
<path style="fill:#257AA5;" d="M87.085,354.719l219.039-219.04c8.45-8.451,19.985-11.929,30.98-10.448
	c-14.023-12.389-35.45-11.884-48.864,1.529L75.807,339.197c-5.236,5.238-5.237,13.728,0,18.962l7.273,7.274
	C82.82,361.59,84.148,357.659,87.085,354.719z"/>
<path style="fill:#6EDCF9;" d="M367.147,155.166l-28.405-28.404c-13.944-13.946-36.556-13.946-50.503,0l-9.431,9.432l78.905,78.906
	l9.433-9.434C381.092,191.722,381.092,169.111,367.147,155.166z"/>
<path style="fill:#2DC0E2;" d="M292.208,149.595l13.916-13.915c8.45-8.451,19.985-11.929,30.98-10.448
	c-13.966-12.337-35.383-11.921-48.864,1.529l-9.431,9.432L292.208,149.595z"/>
<path style="fill:#6EDCF9;" d="M89.491,325.512l-13.685,13.685c-5.236,5.238-5.237,13.728,0,18.962l59.943,59.944
	c5.236,5.237,13.726,5.236,18.962,0l13.685-13.686L89.491,325.512z"/>
<path style="fill:#2DC0E2;" d="M87.085,354.719l15.806-15.807l-13.4-13.4l-13.685,13.685c-5.236,5.238-5.237,13.728,0,18.962
	l7.273,7.274C82.82,361.59,84.148,357.659,87.085,354.719z"/>
<g>
	<path style="fill:#514845;" d="M272.292,188.747c1.986,0,3.972-0.757,5.486-2.272c3.028-3.029,3.028-7.942-0.001-10.971
		l-19.139-19.138l-10.972,10.971C268.467,188.136,268.133,188.747,272.292,188.747z"/>
	<path style="fill:#514845;" d="M238.421,222.618c6.852,0,10.388-8.341,5.486-13.244l-19.14-19.139l-10.972,10.972
		C234.6,222.011,234.262,222.618,238.421,222.618z"/>
	<path style="fill:#514845;" d="M204.55,256.488c6.852,0,10.387-8.341,5.486-13.244l-19.139-19.138l-10.972,10.972
		C200.689,255.841,200.382,256.488,204.55,256.488z"/>
	<path style="fill:#514845;" d="M136.815,324.225c1.986,0,3.971-0.758,5.485-2.271c3.029-3.03,3.029-7.942,0-10.971l-19.138-19.139
		l-10.972,10.971C132.988,323.612,132.655,324.225,136.815,324.225z"/>
	<path style="fill:#514845;" d="M170.683,290.357c6.851,0,10.388-8.341,5.485-13.244l-19.14-19.138l-10.971,10.971
		C166.822,289.709,166.513,290.357,170.683,290.357z"/>
</g>
<path style="fill:#ED4A3E;" d="M504.644,114.147l-26.83-36.989c-2.065-2.847-6.312-2.841-8.373,0l-26.83,36.989
	c-18.548,25.57,0.282,60.916,31.77,60.613C504.906,174.094,522.959,139.395,504.644,114.147z"/>
<path style="fill:#D63322;" d="M462.378,115.556l13.164-40.159c-2.282-0.909-4.756-0.093-6.101,1.762l-26.83,36.989
	c-18.353,25.302-0.08,59.95,30.378,60.615c9.912,0.082,18.633-3.328,25.409-9.171C472.193,165.347,454.413,139.858,462.378,115.556z
	"/>
<path style="fill:#685E5A;" d="M70.594,489.819c-5.453,5.454-14.298,5.453-19.751-0.001l-46.75-46.75
	c-5.455-5.455-5.456-14.298-0.001-19.753l0,0c5.455-5.454,14.298-5.453,19.753,0l46.748,46.75
	C76.049,475.52,76.05,484.362,70.594,489.819L70.594,489.819z"/>
<path style="fill:#514845;" d="M59.635,481.042l-46.75-46.751c-3.879-3.877-4.985-9.466-3.349-14.334
	c-9.844,3.288-12.766,15.788-5.444,23.11l46.75,46.75c7.308,7.31,19.793,4.414,23.1-5.42
	C69.08,486.021,63.505,484.913,59.635,481.042z"/>
<g>
</g>
<g>
</g>
<g>
</g>
<g>
</g>
<g>
</g>
<g>
</g>
<g>
</g>
<g>
</g>
<g>
</g>
<g>
</g>
<g>
</g>
<g>
</g>
<g>
</g>
<g>
</g>
<g>
</g>
</svg>
